<?xml version="1.0" standalone="no"?>
<!DOCTYPE svg PUBLIC "-//W3C//DTD SVG 20010904//EN"
 "http://www.w3.org/TR/2001/REC-SVG-20010904/DTD/svg10.dtd">
<svg version="1.0" xmlns="http://www.w3.org/2000/svg"
 width="700.000000pt" height="700.000000pt" viewBox="0 0 700.000000 700.000000"
 preserveAspectRatio="xMidYMid meet">
<metadata>
Created by potrace 1.14, written by Peter Selinger 2001-2017
</metadata>
<g transform="translate(0.000000,700.000000) scale(0.100000,-0.100000)"
fill="#000000" stroke="none">
<path d="M3812 4668 c-171 -456 -704 -1863 -709 -1873 -6 -9 -177 72 -653 309
l-645 322 455 222 455 221 3 121 c2 78 -1 120 -8 120 -5 0 -258 -124 -560
-275 l-550 -275 0 -138 0 -137 710 -355 c391 -195 710 -357 710 -360 0 -3 -24
-68 -54 -145 l-54 -140 126 -3 c68 -1 127 -1 129 2 2 2 146 379 319 837 173
459 326 864 340 901 l25 67 627 -313 c345 -172 653 -323 685 -336 l57 -24 -46
-17 c-26 -10 -238 -112 -470 -226 l-424 -207 0 -118 c0 -65 2 -118 5 -118 3 0
255 125 560 277 l555 278 0 137 0 138 -732 366 c-403 201 -734 367 -735 368
-1 1 21 62 48 136 28 74 64 170 80 213 l28 77 -129 0 -129 0 -19 -52z"/>
</g>
</svg>
